<?xml version="1.0" encoding="UTF-8" standalone="no"?>
<!DOCTYPE svg PUBLIC "-//W3C//DTD SVG 1.1//EN" "http://www.w3.org/Graphics/SVG/1.1/DTD/svg11.dtd">
<svg width="100%" height="100%" viewBox="0 0 2585 522" version="1.1" xmlns="http://www.w3.org/2000/svg" xmlns:xlink="http://www.w3.org/1999/xlink" xml:space="preserve" style="fill-rule:evenodd;clip-rule:evenodd;stroke-linejoin:round;stroke-miterlimit:2;">
    <g transform="matrix(1,0,0,1,-434.853,-979.237)">
        <g transform="matrix(0.67752,0.201716,0.201716,0.67752,-115.941,-125.61)">
            <path d="M1361.74,1225.3C1594.96,1155.86 1727.94,1288.83 1658.5,1522.05C1589.06,1755.28 1343.34,2001 1110.12,2070.43C876.9,2139.87 743.927,2006.89 813.363,1773.67C882.799,1540.45 1128.52,1294.73 1361.74,1225.3ZM1571.25,1278.5C1520.98,1242.38 1444.79,1234.3 1350.72,1262.31C1137.93,1325.66 913.729,1549.86 850.374,1762.65C822.369,1856.72 830.451,1932.91 866.568,1983.18L1175.96,1673.78L1039.18,1537L1147.63,1504.43C1161.68,1500.21 1173.51,1501.76 1180.48,1508.73L1260.75,1589L1571.25,1278.5ZM911.293,2024.24C961.391,2054.28 1033.51,2059.51 1121.14,2033.42C1333.94,1970.07 1558.13,1745.87 1621.49,1533.07C1647.58,1445.44 1642.35,1373.32 1612.31,1323.23L1303.64,1631.89L1429.76,1758.01L1321.21,1790.53C1307.17,1794.73 1295.36,1793.18 1288.4,1786.21L1218.86,1716.68L911.293,2024.24Z"/>
        </g>
        <g transform="matrix(1.11898,0,0,1.19571,-1914.27,-361.483)">
            <path d="M2324.15,1395.06C2328.36,1395.06 2332.41,1396.62 2335.39,1399.41C2338.37,1402.2 2340.05,1405.99 2340.05,1409.93C2340.05,1417.41 2340.05,1424.9 2340.05,1424.9L2191.89,1424.9C2141.11,1424.9 2099.35,1384.16 2099.35,1333.39C2099.35,1282.62 2141.11,1241.88 2191.89,1241.88L2340.05,1241.88C2340.05,1241.88 2340.05,1249.54 2340.05,1257.1C2340.05,1265.18 2333.05,1271.72 2324.42,1271.72C2286.35,1271.72 2191.89,1271.72 2191.89,1271.72C2158.12,1271.72 2131.24,1299.62 2131.24,1333.39C2131.24,1367.16 2158.12,1395.06 2191.89,1395.06C2191.89,1395.06 2285.9,1395.06 2324.15,1395.06Z"/>
        </g>
        <g transform="matrix(1.37474,0,0,1.37474,-1527.32,-586.496)">
            <path d="M2136.06,1403.01L2136.06,1325.64C2136.06,1321.6 2137.66,1317.74 2140.51,1314.89C2143.36,1312.04 2147.23,1310.43 2151.26,1310.43C2189.26,1310.43 2285.35,1310.43 2285.39,1310.43C2296.6,1310.43 2305.71,1301.33 2305.71,1290.11C2305.71,1278.89 2296.6,1269.78 2285.39,1269.78L2149.04,1269.78C2141.87,1269.78 2136.06,1263.96 2136.06,1256.8C2136.06,1249.63 2136.1,1243.82 2136.1,1243.82L2285.25,1243.82C2285.3,1243.82 2285.34,1243.82 2285.39,1243.82C2310.93,1243.82 2331.67,1264.56 2331.67,1290.11C2331.67,1315.65 2310.93,1336.4 2285.39,1336.4C2285.34,1336.4 2162.02,1336.4 2162.02,1336.4L2162.02,1390.03C2162.02,1397.2 2156.2,1403.01 2149.04,1403.01C2141.87,1403.01 2136.06,1403.01 2136.06,1403.01Z"/>
        </g>
        <g transform="matrix(-1.03857,0,0,-1.37474,4843.03,2960.63)">
            <path d="M2285.43,1336.4C2285.37,1336.4 2087.77,1336.4 2087.77,1336.4C2087.77,1336.4 2087.77,1329.78 2087.77,1323.24C2087.77,1319.85 2089.55,1316.59 2092.73,1314.19C2095.91,1311.78 2100.22,1310.43 2104.72,1310.43C2152.58,1310.43 2285.37,1310.43 2285.43,1310.43C2300.28,1310.43 2312.34,1301.33 2312.34,1290.11C2312.34,1278.89 2300.28,1269.78 2285.43,1269.78C2285.37,1269.78 2285.31,1269.78 2285.25,1269.78L2149.04,1269.78C2115.22,1269.78 2087.77,1249.04 2087.77,1223.49C2087.77,1197.94 2115.22,1177.2 2149.04,1177.2L2346.7,1177.2C2346.7,1177.2 2346.7,1183.76 2346.7,1190.28C2346.7,1193.7 2344.91,1196.98 2341.71,1199.39C2338.51,1201.81 2334.17,1203.16 2329.65,1203.16C2281.72,1203.16 2149.22,1203.16 2149.22,1203.16C2149.16,1203.16 2149.1,1203.16 2149.04,1203.16C2134.19,1203.16 2122.13,1212.27 2122.13,1223.49C2122.13,1234.71 2134.19,1243.82 2149.04,1243.82L2285.43,1243.82C2319.25,1243.82 2346.7,1264.56 2346.7,1290.11C2346.7,1315.65 2319.25,1336.4 2285.43,1336.4Z"/>
        </g>
        <g transform="matrix(1.37474,0,0,1.37474,-2471.33,-494.915)">
            <path d="M2190.59,1269.78C2187.15,1269.78 2183.86,1268.41 2181.43,1265.99C2179,1263.56 2177.64,1260.27 2177.64,1256.83C2177.64,1256.8 2177.64,1256.76 2177.64,1256.73C2177.64,1253.31 2179,1250.02 2181.42,1247.6C2183.84,1245.18 2187.12,1243.82 2190.55,1243.82L2285.25,1243.82C2285.25,1243.82 2285.25,1250.38 2285.25,1256.91C2285.25,1260.32 2283.89,1263.6 2281.48,1266.01C2279.07,1268.42 2275.79,1269.78 2272.38,1269.78L2190.59,1269.78Z"/>
        </g>
        <g transform="matrix(1.11898,0,0,1.19571,401.132,-361.483)">
            <path d="M2324.19,1395.06C2332.95,1395.06 2340.05,1401.7 2340.05,1409.9C2340.05,1417.39 2340.05,1424.9 2340.05,1424.9L2191.89,1424.9C2141.11,1424.9 2099.35,1384.16 2099.35,1333.39C2099.35,1282.62 2141.11,1241.88 2191.89,1241.88L2340.05,1241.88C2340.05,1241.88 2340.05,1249.4 2340.05,1256.89C2340.05,1260.82 2338.38,1264.6 2335.4,1267.38C2332.43,1270.16 2328.4,1271.72 2324.2,1271.72C2285.98,1271.72 2191.89,1271.72 2191.89,1271.72C2158.12,1271.72 2131.24,1299.62 2131.24,1333.39C2131.24,1367.16 2158.12,1395.06 2191.89,1395.06C2191.89,1395.06 2285.97,1395.06 2324.19,1395.06Z"/>
        </g>
        <g transform="matrix(1.37474,0,0,1.37474,-155.936,-494.915)">
            <path d="M2190.49,1269.78C2183.39,1269.78 2177.64,1264.03 2177.64,1256.93C2177.64,1256.89 2177.64,1256.85 2177.64,1256.81C2177.64,1249.63 2183.45,1243.82 2190.62,1243.82L2285.25,1243.82C2285.25,1243.82 2285.25,1250.35 2285.25,1256.86C2285.25,1263.99 2279.46,1269.78 2272.33,1269.78L2190.49,1269.78Z"/>
        </g>
        <g transform="matrix(1.37474,0,0,2.74948,-741.809,-2497.43)">
            <path d="M2208.7,1323.37C2208.7,1319.81 2214.47,1316.92 2221.59,1316.92C2228.11,1316.92 2234.66,1316.92 2234.66,1316.92L2234.66,1390.03C2234.66,1392.52 2231.83,1394.78 2227.36,1395.87C2222.89,1396.95 2217.58,1396.67 2213.67,1395.14L2064.82,1336.76C2064.82,1336.76 2064.82,1374.59 2064.82,1390.05C2064.82,1393.63 2059.03,1396.52 2051.88,1396.52C2045.38,1396.52 2038.86,1396.52 2038.86,1396.52L2038.86,1323.41C2038.86,1320.93 2041.69,1318.67 2046.16,1317.58C2050.63,1316.49 2055.94,1316.78 2059.85,1318.31L2208.7,1376.69C2208.7,1376.69 2208.7,1338.81 2208.7,1323.37Z"/>
        </g>
        <g transform="matrix(1.69926,0,0,1.37474,-1798.61,-586.496)">
            <path d="M2148.27,1271.08C2148.27,1271.08 2101.88,1370.15 2089.5,1396.59C2087.64,1400.57 2084.21,1403.01 2080.49,1403.01C2073.3,1403.01 2062.23,1403.01 2062.23,1403.01L2132.67,1252.57C2135.9,1245.66 2141.87,1241.42 2148.33,1241.44C2154.78,1241.46 2160.74,1245.74 2163.95,1252.66L2233.55,1403.01L2215.4,1403.01C2211.66,1403.01 2208.21,1400.54 2206.35,1396.53C2194.06,1369.99 2148.27,1271.08 2148.27,1271.08Z"/>
        </g>
    </g>
</svg>
